<svg xmlns="http://www.w3.org/2000/svg" width="512" height="512" viewBox="0 0 90 90"><path d="M65.71 10.5c1.17 2.657 1.927 7.07.796 10.3 4.625 3.95 6.215 13.55 3.982 21.395 6.592.503 14.444-.242 19.512 1.78-4.738-.608-11.21-1.803-17.32-1.387-1.158.08-2.873-.044-2.79 1.585 7.075.555 14.105 1.16 19.913 2.973-5.76-.94-12.754-2.375-19.912-2.574-2.956 5.835-8.907 8.703-17.122 9.307.883 1.92 2.574 2.652 2.987 5.743.616 4.618-.964 11.38.595 14.46.748 1.474 1.967 1.513 2.79 2.774-2.013 2.38-7-.268-7.57-2.775-.972-4.295 1.483-10.953-1.19-13.865.187 4.685-1.11 11.264.198 15.45.515 1.645 2.002 2.28 1.593 3.765-9.35.95-5.442-12.104-6.97-19.81-1.412.1-.792 2.113-.797 2.972-.04 7.524 1.54 17.844-6.57 16.838-.237-1.582 1.088-2.12 1.593-3.563 1.48-4.234-.277-10.543.4-15.652-3.094 2.334.326 10.48-1.592 14.657-1.105 2.404-4.666 3.45-7.367 2.377.352-1.79 2.2-1.5 2.984-3.17 1.097-2.323.01-5.673.4-9.11-5.73 1.144-10.173-.166-12.348-3.764-.973-1.615-1.214-3.52-2.39-4.95-1.17-1.433-3.04-1.626-3.582-3.564 7.095-1.708 7.367 7.302 13.74 7.524 1.953.07 2.97-.563 4.777-.988.506-2.272 1.59-3.967 3.186-5.153-7.93-1.085-14.477-3.554-17.522-9.504-7.207.354-13.803 1.317-19.912 2.77 5.545-2.013 12.384-2.735 19.715-2.972-.432-2.595-4.22-1.88-6.57-1.78-4.37.19-9.87.734-13.343 1.386 5.034-1.795 12.098-1.57 18.918-1.585-2.086-6.54-1.363-16.928 3.186-20.797-1.29-3.25-.89-8.563.796-11.093 5.08.228 8.16 2.443 11.35 4.557 3.957-1.125 8.118-1.685 13.54-1.387 2.28.126 4.65 1.15 6.37.99 1.684-.16 3.54-2.05 5.177-2.772 2.13-.94 3.934-1.3 6.372-1.388z" fill="#FFF"/></svg>